# xmcd
#
# Track frame offsets: 
#        157
#        20922
#        37017
#        63615
#
# Disc length: 1195 seconds
#
# Revision: 4
# Processed by: cddbd v1.5.2PL0 Copyright (c) Steve Scherf et al.
# Submitted via: ExactAudioCopy v0.90b4
#
DISCID=3704a904
DTITLE=Gary Moore - Story Of The Blues (Single)
DYEAR=1992
DGENRE=Blues
TTITLE0=Story Of The Blues
TTITLE1=Movin' Down The Road
TTITLE2=King Of The Blues (Live)
TTITLE3=Story Of The Blues (Long Version)
EXTD=YEAR: 1992
EXTT0=
EXTT1=
EXTT2=
EXTT3=
PLAYORDER=
